<svg xmlns="http://www.w3.org/2000/svg" width="55" height="55" viewBox="0 0 55 55"><defs><style>.a{fill:#fff;}.b{fill:#004173;}.c{fill:#faf0fa;}.d{fill:#e1e6f5;}.e{fill:#00beff;}.f{fill:#3c8cff;}.g{fill:#ffd7be;}.h{fill:#ffbeb4;}.i{fill:#06e664;}.j{fill:#00a06e;}.k{fill:#5a5aff;}.l{fill:#ff645a;}.m{fill:#ff3053;}</style></defs><g transform="translate(-100 -479)"><circle class="a" cx="27.5" cy="27.5" r="27.5" transform="translate(100 479)"/><g transform="translate(112 491)"><path class="b" d="M100.3,132.348H91.652v-2.925a.89.89,0,0,0-1.781,0v2.925H81.223a.89.89,0,0,0-.89.89V136.1a.89.89,0,0,0,1.781,0v-1.971h7.757V136.1a.89.89,0,0,0,1.781,0v-1.971h7.757V136.1a.89.89,0,1,0,1.781,0v-2.861A.89.89,0,0,0,100.3,132.348Z" transform="translate(-75.564 -120.903)"/><path class="c" d="M128.618,9.411h-15.26a.89.89,0,0,1-.89-.89V.89a.89.89,0,0,1,.89-.89h15.26a.89.89,0,0,1,.89.89v7.63A.89.89,0,0,1,128.618,9.411Z" transform="translate(-105.79 0)"/><path class="d" d="M263.617,0h-7.631V9.411h7.631a.89.89,0,0,0,.89-.89V.89A.89.89,0,0,0,263.617,0Z" transform="translate(-240.79 0)"/><g transform="translate(10.492 3.815)"><circle class="e" cx="0.89" cy="0.89" r="0.89"/><circle class="e" cx="0.89" cy="0.89" r="0.89" transform="translate(3.815)"/><circle class="f" cx="0.89" cy="0.89" r="0.89" transform="translate(7.63)"/></g><path class="g" d="M34.538,311.677a3.2,3.2,0,1,1,3.2-3.2A3.208,3.208,0,0,1,34.538,311.677Z" transform="translate(-29.473 -287.145)"/><path class="h" d="M88.524,308.472a3.209,3.209,0,0,0-3.2-3.2v6.41A3.208,3.208,0,0,0,88.524,308.472Z" transform="translate(-80.254 -287.145)"/><path class="i" d="M9.334,419.1H.8a.8.8,0,0,1-.8-.8,5.066,5.066,0,1,1,10.131,0A.8.8,0,0,1,9.334,419.1Z" transform="translate(0 -388.709)"/><path class="j" d="M90.386,418.306a5.061,5.061,0,0,0-5.035-5.065h-.031V419.1h4.269A.8.8,0,0,0,90.386,418.306Z" transform="translate(-80.254 -388.709)"/><path class="g" d="M205.2,311.677a3.2,3.2,0,1,1,3.2-3.2A3.208,3.208,0,0,1,205.2,311.677Z" transform="translate(-190.008 -287.145)"/><path class="h" d="M259.191,308.472a3.208,3.208,0,0,0-3.2-3.2v6.41A3.208,3.208,0,0,0,259.191,308.472Z" transform="translate(-240.79 -287.145)"/><path class="f" d="M180,419.1h-8.535a.8.8,0,0,1-.8-.8,5.066,5.066,0,0,1,10.131,0A.8.8,0,0,1,180,419.1Z" transform="translate(-160.536 -388.708)"/><path class="k" d="M261.053,418.306a5.061,5.061,0,0,0-5.035-5.065h-.031V419.1h4.269A.8.8,0,0,0,261.053,418.306Z" transform="translate(-240.79 -388.709)"/><path class="g" d="M375.871,311.677a3.2,3.2,0,1,1,3.2-3.2A3.208,3.208,0,0,1,375.871,311.677Z" transform="translate(-350.543 -287.145)"/><path class="h" d="M429.857,308.472a3.209,3.209,0,0,0-3.2-3.2v6.41A3.208,3.208,0,0,0,429.857,308.472Z" transform="translate(-401.324 -287.145)"/><path class="l" d="M350.667,419.1h-8.535a.8.8,0,0,1-.8-.8,5.066,5.066,0,0,1,10.131,0A.8.8,0,0,1,350.667,419.1Z" transform="translate(-321.07 -388.708)"/><path class="m" d="M431.719,418.306a5.061,5.061,0,0,0-5.035-5.065h-.031V419.1h4.269A.8.8,0,0,0,431.719,418.306Z" transform="translate(-401.324 -388.709)"/><path class="f" d="M255.987,64.267h0v1.781h0a.89.89,0,0,0,0-1.781Z" transform="translate(-240.79 -60.452)"/></g></g></svg>