<svg xmlns="http://www.w3.org/2000/svg" width="55" height="55" viewBox="0 0 55 55"><defs><style>.a{fill:#fff;}.b{fill:#ff933b;}.c{fill:#f27d27;}.d{fill:#feccc1;}.e{fill:#f9b3a7;}.f{fill:#636363;}.g{fill:#494949;}.h{fill:#ddf5ff;}.i{fill:#8db0ff;}.j{fill:#669af7;}.k{fill:#ffd664;}.l{fill:#f9c646;}</style></defs><g transform="translate(-100 -479)"><circle class="a" cx="27.5" cy="27.5" r="27.5" transform="translate(100 479)"/><g transform="translate(112 492)"><path class="b" d="M20.1,451.338H.622A.622.622,0,0,1,0,450.716V448.1a.622.622,0,0,1,.622-.622H20.1Zm0,0" transform="translate(0 -420.723)"/><path class="c" d="M18.729,447.48a4.963,4.963,0,0,0-.435,2.034v.02a.5.5,0,0,1-.5.5H0v.685a.622.622,0,0,0,.622.622H20.1V447.48Zm0,0" transform="translate(0 -420.723)"/><path class="d" d="M380.9,315.847a2.613,2.613,0,1,0-5.227,0v1.245a2.613,2.613,0,0,0,5.227,0Zm0,0" transform="translate(-353.213 -294.504)"/><path class="e" d="M411.064,313.234a2.633,2.633,0,0,0-.529.054,2.614,2.614,0,0,1,2.085,2.56v1.245a2.614,2.614,0,0,1-2.085,2.56,2.615,2.615,0,0,0,3.143-2.56v-1.245A2.614,2.614,0,0,0,411.064,313.234Zm0,0" transform="translate(-385.988 -294.504)"/><path class="f" d="M337.842,416.472v-1.2a3.734,3.734,0,0,0-2.509-3.527L334,411.281a4.008,4.008,0,0,0-1.315-.222h-.763a4.007,4.007,0,0,0-1.315.222l-1.333.462a3.734,3.734,0,0,0-2.509,3.527v1.824h10.454A.622.622,0,0,0,337.842,416.472Zm0,0" transform="translate(-307.227 -386.48)"/><path class="g" d="M464.556,420.6l-.349-.121a3.734,3.734,0,0,1,1.489,2.984v2.489h.747a.622.622,0,0,0,.622-.622v-1.2A3.734,3.734,0,0,0,464.556,420.6Zm0,0" transform="translate(-436.45 -395.334)"/><path class="f" d="M90.778,353l-.913-.317v.006l-2.116,3.671-2.116-3.671v-.006L84.72,353a3.734,3.734,0,0,0-2.509,3.527v1.824H93.287v-1.824A3.733,3.733,0,0,0,90.778,353Zm0,0" transform="translate(-77.295 -331.591)"/><path class="g" d="M220,356.078l-.349-.121a3.734,3.734,0,0,1,1.489,2.984v2.489h1.369V359.6A3.733,3.733,0,0,0,220,356.078Zm0,0" transform="translate(-206.518 -334.672)"/><path class="h" d="M139.434,346.908l2.116,3.671,2.116-3.671V346.9l-1.058-.367h-2.116l-1.059.368Zm0,0" transform="translate(-131.096 -325.814)"/><path class="d" d="M136.348,251.328a2.613,2.613,0,0,0-5.227,0v1.244a2.613,2.613,0,0,0,5.227,0Zm0,0" transform="translate(-123.281 -233.843)"/><path class="e" d="M166.513,248.715a2.632,2.632,0,0,0-.529.053,2.614,2.614,0,0,1,2.084,2.56v1.244a2.614,2.614,0,0,1-2.084,2.56,2.616,2.616,0,0,0,3.142-2.56v-1.244A2.613,2.613,0,0,0,166.513,248.715Zm0,0" transform="translate(-156.06 -233.843)"/><path class="i" d="M15.805,0H2.489A2.489,2.489,0,0,0,0,2.489V8.961a2.489,2.489,0,0,0,2.489,2.489H3.858l2.261,2.261a.5.5,0,0,0,.85-.352V11.449h8.836a2.489,2.489,0,0,0,2.489-2.489V2.489A2.489,2.489,0,0,0,15.805,0Zm0,0" transform="translate(0)"/><path class="i" d="M15.805,0H2.489A2.489,2.489,0,0,0,0,2.489V8.961a2.489,2.489,0,0,0,2.489,2.489H3.858l2.261,2.261a.5.5,0,0,0,.85-.352V11.449h8.836a2.489,2.489,0,0,0,2.489-2.489V2.489A2.489,2.489,0,0,0,15.805,0Zm0,0" transform="translate(0)"/><path class="j" d="M2.489,131.528A2.489,2.489,0,0,1,0,129.039v1.245a2.489,2.489,0,0,0,2.489,2.489H3.858l2.261,2.261a.5.5,0,0,0,.85-.352v-.043l-2.747-2.747a1.245,1.245,0,0,0-.88-.364Zm0,0" transform="translate(0 -121.323)"/><path class="j" d="M125.39,0h-1.556a2.487,2.487,0,0,1,2.1,1.159.623.623,0,0,1-.525.956h-1.019a3.734,3.734,0,0,0-3.734,3.733V9.583a.622.622,0,0,1-.622.622H117.8a1.244,1.244,0,0,0-1.244,1.244h8.836a2.489,2.489,0,0,0,2.489-2.489V2.489A2.489,2.489,0,0,0,125.39,0Zm0,0" transform="translate(-109.586 0)"/><path class="k" d="M208.539,56.2h13.316a2.489,2.489,0,0,1,2.489,2.489v6.472a2.489,2.489,0,0,1-2.489,2.489h-6.409v1.909a.5.5,0,0,1-.85.352l-2.261-2.261h-3.8a2.489,2.489,0,0,1-2.489-2.489V58.684a2.489,2.489,0,0,1,2.489-2.489Zm0,0" transform="translate(-193.73 -52.835)"/><g transform="translate(12.32 3.36)"><path class="l" d="M208.54,185.641a2.489,2.489,0,0,1-2.489-2.489v1.369a2.489,2.489,0,0,0,2.489,2.489h3.8l2.261,2.261a.5.5,0,0,0,.85-.352v-.167l-2.747-2.747a1.244,1.244,0,0,0-.88-.364Zm0,0" transform="translate(-206.051 -175.561)"/><path class="l" d="M369.6,56.194h-1.556a2.489,2.489,0,0,1,2.489,2.489v6.347a1.245,1.245,0,0,1-1.244,1.244h-4.854a1.244,1.244,0,0,0-1.244,1.244v.124H369.6a2.489,2.489,0,0,0,2.489-2.489V58.683a2.489,2.489,0,0,0-2.489-2.489Zm0,0" transform="translate(-353.792 -56.194)"/></g></g></g></svg>