<svg xmlns="http://www.w3.org/2000/svg" width="55" height="55" viewBox="0 0 55 55"><defs><style>.a{fill:#fff;}.b{fill:#fec9a3;}.c{fill:#ffa230;}.d{fill:#4398d1;}.e{fill:#22689c;}.f{fill:#d6d9db;}.g{fill:#0a4a7a;}.h{fill:#c0c2c4;}.i{fill:#753d07;}.j{fill:#fcc095;}.k{fill:#f0af89;}.l{fill:#834a14;}.m{fill:#eaeef0;}.n{fill:#1e5c8a;}</style></defs><g transform="translate(-100 -479)"><circle class="a" cx="27.5" cy="27.5" r="27.5" transform="translate(100 479)"/><g transform="translate(112 491)"><path class="b" d="M296,125.33h2.777V112h-.555A2.222,2.222,0,0,0,296,114.222Zm0,0" transform="translate(-275.45 -104.224)"/><path class="b" d="M332.146,1.133A2.215,2.215,0,0,0,328,2.225V3.336a2.222,2.222,0,0,0,2.44,2.211,2.286,2.286,0,0,0,2-2.307V2.225a2.2,2.2,0,0,0-.3-1.092Zm0,0" transform="translate(-305.228 -0.003)"/><path class="c" d="M332.42.555s-.751,0-.757,0A2.179,2.179,0,0,0,330.281,0,2.333,2.333,0,0,0,328,2.36v.759a.02.02,0,0,0,.007.016.019.019,0,0,0,.017,0A9.634,9.634,0,0,0,331.354,1.8a.7.7,0,0,1,.4-.129.686.686,0,0,1,.686.686V3.888A2.777,2.777,0,0,0,335.2,6.665a.021.021,0,0,0,.022-.021V3.353a2.8,2.8,0,0,0-2.8-2.8Zm0,0" transform="translate(-305.226)"/><path class="d" d="M304.887,125.33H296L298.222,117a2.321,2.321,0,0,1-.492-2.555L298.777,112h5v6.665Zm0,0" transform="translate(-275.45 -104.224)"/><path d="M352,432h1.111v2.222H352Zm0,0" transform="translate(-327.562 -402.008)"/><path class="d" d="M352,432h1.111v2.222H352Zm0,0" transform="translate(-327.562 -402.008)"/><path class="c" d="M351.776,222.11H344V216h1.666l.555.555h5.554Zm0,0" transform="translate(-320.117 -201.004)"/><path class="b" d="M378.222,125.33H376l2.222-7.22V112a2.222,2.222,0,0,1,2.222,2.222v3.888Zm0,0" transform="translate(-349.896 -104.224)"/><path class="e" d="M31.776,283.664V272H25.111v11.664L24,285.33h8.887Zm0,0" transform="translate(-22.334 -253.116)"/><path class="f" d="M8.887,112H3.332A3.333,3.333,0,0,0,0,115.332v7.776H12.219v-7.776A3.333,3.333,0,0,0,8.887,112Zm0,0" transform="translate(0 -104.224)"/><path class="b" d="M0,272H2.777v2.222H0Zm0,0" transform="translate(0 -253.116)"/><path class="g" d="M80,304h1.111v11.108H80Zm0,0" transform="translate(-74.446 -282.894)"/><path class="b" d="M58.222,0a2.222,2.222,0,0,1,2.222,2.222V3.332a2.222,2.222,0,1,1-4.443,0V2.222A2.222,2.222,0,0,1,58.222,0Zm0,0" transform="translate(-52.112)"/><path class="d" d="M80,112h1.111v9.442H80Zm0,0" transform="translate(-74.446 -104.224)"/><path class="h" d="M24,160h1.111v7.776H24Zm0,0" transform="translate(-22.334 -148.892)"/><path class="e" d="M167.776,283.664V272h-6.665v11.664L160,285.33h8.887Zm0,0" transform="translate(-148.892 -253.116)"/><path class="b" d="M272,272h2.777v2.222H272Zm0,0" transform="translate(-253.116 -253.116)"/><path class="g" d="M216,304h1.111v11.108H216Zm0,0" transform="translate(-201.004 -282.894)"/><path class="b" d="M194.222,0a2.222,2.222,0,0,1,2.222,2.222V3.332a2.222,2.222,0,0,1-4.443,0V2.222A2.222,2.222,0,0,1,194.222,0Zm0,0" transform="translate(-178.67)"/><path class="i" d="M88,304h9.442v5.554H88Zm0,0" transform="translate(-81.89 -282.894)"/><path class="d" d="M304,434.222h2.222L307.888,432h-2.777Zm0,0" transform="translate(-282.894 -402.008)"/><path class="b" d="M320,304h2.777v8.887H320Zm0,0" transform="translate(-297.784 -282.894)"/><path class="b" d="M360,304h2.777v8.887H360Zm0,0" transform="translate(-335.007 -282.894)"/><path class="d" d="M360,432l1.666,2.222h2.222L362.777,432Zm0,0" transform="translate(-335.007 -402.008)"/><path class="j" d="M320,304h5.554v1.111H320Zm0,0" transform="translate(-297.784 -282.894)"/><path class="k" d="M352,304h1.111v8.887H352Zm0,0" transform="translate(-327.562 -282.894)"/><path class="l" d="M88,304v1.666l4.443,1.666,5-1.666V304Zm0,0" transform="translate(-81.89 -282.894)"/><path class="b" d="M136,272h2.777v2.222H136Zm0,0" transform="translate(-126.558 -253.116)"/><path class="m" d="M144.887,112h-5.554A3.333,3.333,0,0,0,136,115.332v7.776h12.219v-7.776A3.333,3.333,0,0,0,144.887,112Zm0,0" transform="translate(-126.558 -104.224)"/><path class="d" d="M216,112h1.111v9.442H216Zm0,0" transform="translate(-201.004 -104.224)"/><path class="h" d="M272,160h1.111v7.776H272Zm0,0" transform="translate(-253.116 -148.892)"/><path class="h" d="M160,160h1.111v7.776H160Zm0,0" transform="translate(-148.892 -148.892)"/><g transform="translate(2.777 18.884)"><path class="n" d="M40,272h6.665v1.111H40Zm0,0" transform="translate(-40 -272)"/><path class="n" d="M176,272h6.665v1.111H176Zm0,0" transform="translate(-166.558 -272)"/></g></g></g></svg>