<svg xmlns="http://www.w3.org/2000/svg" width="55" height="55" viewBox="0 0 55 55"><defs><style>.a{fill:#fff;}.b{fill:#ffc24f;}.c{fill:#ffb026;}.d{fill:#4398d1;}.e{fill:#2d7db3;}.f{fill:#7abdeb;}</style></defs><g transform="translate(-100 -479)"><circle class="a" cx="27.5" cy="27.5" r="27.5" transform="translate(100 479)"/><g transform="translate(112 491)"><path class="b" d="M66.359,14.827V11.532H64.026A10.881,10.881,0,0,0,63.4,9.181l2.017-1.164L63.77,5.161,61.755,6.325A11.058,11.058,0,0,0,60.032,4.6L61.2,2.589,58.342.942,57.177,2.959a10.88,10.88,0,0,0-2.35-.626V0H51.532V2.333a11.04,11.04,0,0,0-1.647.378q-.358.11-.7.248L48.018.942,45.162,2.589,46.326,4.6A11.058,11.058,0,0,0,44.6,6.327L42.589,5.162,40.942,8.018l2.017,1.164a10.88,10.88,0,0,0-.626,2.35H40v3.295h2.333a10.88,10.88,0,0,0,.626,2.352l-2.017,1.163L42.589,21.2,44.6,20.034a11.058,11.058,0,0,0,1.722,1.722L45.162,23.77l2.856,1.647L49.182,23.4a10.67,10.67,0,0,0,1.252.4,10.926,10.926,0,0,0,1.1.222v2.333h3.295V24.026a10.88,10.88,0,0,0,2.352-.626l1.164,2.017L61.2,23.77l-1.164-2.015a11.058,11.058,0,0,0,1.722-1.722L63.772,21.2l1.647-2.856L63.4,17.176a10.885,10.885,0,0,0,.623-2.349ZM53.18,19.358a6.178,6.178,0,1,1,6.178-6.178A6.178,6.178,0,0,1,53.18,19.358Zm0,0" transform="translate(-37.254)"/><path class="c" d="M136.4,84.85V81.555h-2.333a10.88,10.88,0,0,0-.626-2.352l2.017-1.164-1.647-2.856-2.015,1.164c-.212-.264-.439-.512-.676-.755a39.758,39.758,0,0,1-2.529,4.558,6.169,6.169,0,0,1-7.989,8.64,30.522,30.522,0,0,1-4.473,2.769c.082.07.156.149.241.22L115.2,93.793l2.856,1.647,1.164-2.017a10.67,10.67,0,0,0,1.252.4,10.927,10.927,0,0,0,1.1.222v2.333h3.295V94.049a10.881,10.881,0,0,0,2.352-.626l1.164,2.017,2.856-1.647-1.164-2.015a11.059,11.059,0,0,0,1.722-1.722l2.015,1.164,1.647-2.856L133.44,87.2a10.886,10.886,0,0,0,.623-2.349Zm0,0" transform="translate(-107.292 -70.023)"/><path class="d" d="M34.2,160a2.2,2.2,0,0,1,2.2,2.2v1.1a2.2,2.2,0,1,1-4.393,0v-1.1A2.2,2.2,0,0,1,34.2,160Zm0,0" transform="translate(-29.804 -149.017)"/><path class="d" d="M8.659,241.014A1.647,1.647,0,0,0,7.139,240H1.647A1.648,1.648,0,0,0,0,241.648v6.041H2.2v6.59l-.549,1.1H7.139l-.549-1.1V242.2l2.475,4.686a1.012,1.012,0,0,0,1.84-.842Zm0,0" transform="translate(0 -223.526)"/><path class="e" d="M56,352h1.1v7.688H56Zm0,0" transform="translate(-52.156 -327.837)"/><path class="e" d="M24,272h1.1v5.492H24Zm0,0" transform="translate(-22.353 -253.329)"/><g transform="translate(9.065 10.983)"><path class="d" d="M202.2,160a2.2,2.2,0,0,1,2.2,2.2v1.1a2.2,2.2,0,1,1-4.393,0v-1.1A2.2,2.2,0,0,1,202.2,160Zm0,0" transform="translate(-195.336 -160)"/><path class="d" d="M145.434,246.041l-2.245-5.027A1.647,1.647,0,0,0,141.668,240h-5.492a1.647,1.647,0,0,0-1.521,1.014l-2.516,5.027a1.012,1.012,0,0,0,1.84.842l2.746-4.686v12.081l-.549,1.1h5.492l-.549-1.1V242.2l2.475,4.686a1.012,1.012,0,0,0,1.84-.842Zm0,0" transform="translate(-132.062 -234.508)"/><path class="d" d="M370.2,165.492a2.2,2.2,0,0,1-2.2-2.2v-1.1a2.2,2.2,0,1,1,4.393,0v1.1A2.2,2.2,0,0,1,370.2,165.492Zm0,0" transform="translate(-351.804 -160)"/><path class="d" d="M311.258,247.688v-6.041A1.648,1.648,0,0,0,309.611,240h-5.492a1.647,1.647,0,0,0-1.521,1.014l-2.516,5.272a1.012,1.012,0,0,0,1.84.843l2.746-4.932v12.081l-.549,1.1h5.492l-.549-1.1v-6.59Zm0,0" transform="translate(-288.473 -234.508)"/></g><path class="e" d="M224,352h1.1v7.688H224Zm0,0" transform="translate(-208.624 -327.837)"/><path class="f" d="M56,240h1.1v5.492H56Zm0,0" transform="translate(-52.156 -223.525)"/><path class="f" d="M224,240h1.1v5.492H224Zm0,0" transform="translate(-208.624 -223.525)"/><path class="f" d="M392,240h1.1v5.492H392Zm0,0" transform="translate(-365.092 -223.525)"/><path class="e" d="M392,352h1.1v7.688H392Zm0,0" transform="translate(-365.092 -327.837)"/><path class="e" d="M424,272h1.1v5.492H424Zm0,0" transform="translate(-394.895 -253.329)"/></g></g></svg>