<svg xmlns="http://www.w3.org/2000/svg" width="55" height="55" viewBox="0 0 55 55"><defs><style>.a{fill:#fff;}.b{fill:#00afff;}.c{fill:#008cfa;}.d{fill:#ffd0af;}.e{fill:#fabe8c;}.f{fill:#64e6e6;}.g{fill:#00cdcd;}.h{fill:#ff823c;}.i{fill:#f06923;}</style></defs><g transform="translate(-100 -479)"><circle class="a" cx="27.5" cy="27.5" r="27.5" transform="translate(100 479)"/><g transform="translate(111 493)"><path class="b" d="M11.81,108.648H1.927A.927.927,0,0,1,1,107.722v-1.853a5.868,5.868,0,1,1,11.737,0v1.853A.927.927,0,0,1,11.81,108.648Z" transform="translate(0 -93.823)"/><path class="c" d="M96,100v8.648h4.942a.927.927,0,0,0,.927-.927v-1.853A5.875,5.875,0,0,0,96,100Z" transform="translate(-89.132 -93.823)"/><path class="d" d="M35.015,8.03A4.015,4.015,0,1,1,39.03,4.015,4.02,4.02,0,0,1,35.015,8.03Z" transform="translate(-28.147)"/><path class="e" d="M96,0V8.03A4.015,4.015,0,0,0,96,0Z" transform="translate(-89.132)"/><path class="f" d="M331.81,107.648h-9.884a.927.927,0,0,1-.927-.927v-1.853a5.868,5.868,0,1,1,11.737,0v1.853A.927.927,0,0,1,331.81,107.648Z" transform="translate(-300.233 -92.884)"/><path class="g" d="M416,99v8.648h4.942a.927.927,0,0,0,.927-.927v-1.853A5.875,5.875,0,0,0,416,99Z" transform="translate(-389.364 -92.884)"/><path class="d" d="M355.015,8.03a4.015,4.015,0,1,1,4.015-4.015A4.02,4.02,0,0,1,355.015,8.03Z" transform="translate(-328.38)"/><path class="e" d="M416,0V8.03A4.015,4.015,0,0,0,416,0Z" transform="translate(-389.364)"/><path class="h" d="M171.81,108.648h-9.884a.927.927,0,0,1-.927-.927v-1.853a5.868,5.868,0,1,1,11.737,0v1.853A.927.927,0,0,1,171.81,108.648Z" transform="translate(-150.116 -93.823)"/><path class="i" d="M256,100v8.648h4.942a.927.927,0,0,0,.927-.927v-1.853A5.875,5.875,0,0,0,256,100Z" transform="translate(-239.248 -93.823)"/><path class="d" d="M195.015,8.03a4.015,4.015,0,1,1,4.015-4.015A4.02,4.02,0,0,1,195.015,8.03Z" transform="translate(-178.263)"/><path class="e" d="M256,0V8.03A4.015,4.015,0,0,0,256,0Z" transform="translate(-239.248)"/><path class="d" d="M180.55,186.424a2.085,2.085,0,0,0-2.085,2.085v-.618a2.085,2.085,0,0,0-4.17,0v-.618a2.085,2.085,0,0,0-4.17,0v-5.189a2.085,2.085,0,0,0-4.17,0v7.661l-2.519,1.272a2.152,2.152,0,0,0-1.187,1.93v1.074a6.493,6.493,0,0,0,6.486,6.486H178a4.638,4.638,0,0,0,4.633-4.633v-7.366A2.085,2.085,0,0,0,180.55,186.424Z" transform="translate(-151.289 -168.881)"/><g transform="translate(12.814 11.119)"><path class="e" d="M268.509,186.424a2.085,2.085,0,0,0-2.085,2.085v-.618a2.085,2.085,0,1,0-4.17,0v-.618a2.085,2.085,0,1,0-4.17,0v-5.189A2.085,2.085,0,0,0,256,180v20.471a6.523,6.523,0,0,0,.695.037h9.266a4.638,4.638,0,0,0,4.633-4.633v-7.366A2.085,2.085,0,0,0,268.509,186.424Z" transform="translate(-252.062 -180)"/><path class="e" d="M192.25,341.43a.927.927,0,1,0,1.853,0v-3.659l-1.853.936Z" transform="translate(-192.25 -328.025)"/></g></g></g></svg>