<svg xmlns="http://www.w3.org/2000/svg" width="55" height="55" viewBox="0 0 55 55"><defs><style>.a{fill:#fff;}.b{fill:#76e2f8;}.c{fill:#596c76;}.d{fill:#ff637b;}.e{fill:#ffda2d;}.f{fill:#4bb9ec;}.g{fill:#465a61;}.h{fill:#e63950;}.i{fill:#fdbf00;}</style></defs><g transform="translate(-100 -479)"><circle class="a" cx="27.5" cy="27.5" r="27.5" transform="translate(100 479)"/><g transform="translate(110.999 490)"><path class="b" d="M361,362h1.837v1.837H361Z" transform="translate(-338.897 -339.839)"/><path class="c" d="M421,362h5.571v1.837H421Z" transform="translate(-395.224 -339.839)"/><path class="d" d="M361,422h1.837v1.837H361Z" transform="translate(-338.897 -396.165)"/><path class="c" d="M421,422h5.571v1.837H421Z" transform="translate(-395.224 -396.165)"/><path class="e" d="M361,482h1.837v1.837H361Z" transform="translate(-338.897 -452.492)"/><path class="c" d="M421,482h5.571v1.837H421Z" transform="translate(-395.224 -452.492)"/><path class="f" d="M361,377h1.837v.918H361Z" transform="translate(-338.897 -353.92)"/><path class="g" d="M421,377h5.571v.918H421Z" transform="translate(-395.224 -353.92)"/><path class="h" d="M361,437h1.837v.918H361Z" transform="translate(-338.897 -410.247)"/><path class="g" d="M421,437h5.571v.918H421Z" transform="translate(-395.224 -410.247)"/><path class="i" d="M361,497h1.837v.918H361Z" transform="translate(-338.897 -466.574)"/><path class="g" d="M421,497h5.571v.918H421Z" transform="translate(-395.224 -466.574)"/><path class="e" d="M301.242,112.683l-7.408-5.5v2.779a11.879,11.879,0,0,0-5.51,1.859l-.826,2.708.826,7.335a6.438,6.438,0,0,1,5.51-6.363v2.678Z" transform="translate(-269.897 -100.623)"/><path class="b" d="M7.408,229.964v-2.779L0,232.683l7.407,5.5V235.5a6.438,6.438,0,0,1,5.51,6.363l.949-6.275-.949-3.768A11.877,11.877,0,0,0,7.408,229.964Z" transform="translate(0 -213.277)"/><path class="d" d="M175.956,6.979h-2.829V31.344h-5.51V6.979h-2.829L170.372,0Z" transform="translate(-154.699)"/><path class="h" d="M261.582,6.979h-2.829V31.344H256V0Z" transform="translate(-240.325)"/></g></g></svg>