<svg xmlns="http://www.w3.org/2000/svg" xmlns:xlink="http://www.w3.org/1999/xlink" width="40" height="40" viewBox="0 0 40 40"><defs><style>.a{fill:#eb6d4a;}.b{clip-path:url(#a);}.c{fill:#ecc19c;}.d{fill:#c7d4e2;}.e{fill:#543e36;}.f{fill:#1a1a1a;}.g{fill:#435363;}.h{fill:#141720;}.i{fill:#e7ecf2;}</style><clipPath id="a"><circle cx="20" cy="20" r="20"/></clipPath></defs><circle class="a" cx="20" cy="20" r="20" transform="translate(0 0)"/><g class="b" transform="translate(0 0)"><path class="c" d="M70.014,19.827v6.647c0,.1,0,.192,0,.288,0,.2-.015.4-.033.594,0,.068-.011.135-.02.2-.028.282-.068.56-.118.835-.018.092-.035.181-.055.271a.382.382,0,0,1-.011.055c-.018.092-.04.182-.061.271-.009.048-.022.1-.033.144s-.022.083-.035.125c-.046.179-.1.354-.153.529-.026.083-.052.164-.081.247,0,.009-.007.017-.009.026l-.079.223c-.009.022-.017.044-.026.068-.026.07-.052.14-.081.21-.033.085-.068.168-.1.252s-.063.149-.1.223c0,.013-.011.024-.015.037-.037.079-.072.158-.109.234s-.077.162-.118.243c-.079.159-.164.319-.249.474l-.118.21a12.85,12.85,0,0,1-1.117,1.626c-.055.072-.111.142-.171.21-.081.1-.164.195-.247.288s-.149.166-.225.247c-.21.225-.424.439-.643.641-.044.044-.09.083-.136.125-.074.068-.148.133-.225.2-.059.053-.12.1-.182.153-.157.129-.315.253-.474.369-.066.05-.134.1-.2.144-.109.079-.221.153-.332.225-.061.041-.125.081-.188.118-.223.138-.448.264-.671.374-.055.028-.109.055-.164.081s-.111.053-.171.079-.144.063-.216.092a.68.68,0,0,1-.085.033c-.085.035-.173.068-.258.1-.107.039-.216.072-.323.1-.074.022-.151.041-.225.059a.03.03,0,0,1-.015,0c-.074.017-.149.035-.223.048a.519.519,0,0,1-.059.011c-.061.011-.122.022-.184.028-.087.013-.175.024-.262.028a.632.632,0,0,1-.09.007c-.07,0-.14.007-.208.007h-.006q-.1,0-.2-.007a.47.47,0,0,1-.079-.007c-.061,0-.125-.009-.19-.018a.272.272,0,0,1-.041,0c-.081-.011-.162-.024-.245-.039s-.14-.026-.212-.044a6.268,6.268,0,0,1-1.147-.387,8.365,8.365,0,0,1-1-.529c-.168-.1-.337-.212-.5-.328-.083-.059-.166-.118-.249-.179q-.39-.285-.772-.621c-.07-.063-.14-.127-.21-.192s-.14-.129-.208-.192q-.256-.246-.5-.512-.1-.1-.19-.21c-.175-.2-.345-.4-.507-.612-.064-.077-.122-.155-.182-.234q-.331-.439-.627-.916c-.052-.085-.1-.173-.155-.258-.061-.1-.12-.207-.179-.313A11.919,11.919,0,0,1,53.11,30.8c-.026-.061-.053-.122-.074-.183-.035-.079-.066-.16-.094-.238q-.065-.174-.125-.348c-.039-.116-.076-.234-.114-.352s-.068-.227-.1-.343-.068-.247-.1-.374c0-.013-.007-.026-.009-.039q-.062-.262-.111-.531c-.044-.236-.079-.477-.105-.719-.011-.077-.017-.153-.024-.23s-.015-.16-.02-.24c-.011-.146-.018-.3-.022-.444,0-.1,0-.192,0-.288V19.827a8.9,8.9,0,0,1,8.892-8.9h.009a9,9,0,0,1,1.971.219,8.908,8.908,0,0,1,6.928,8.68Z" transform="translate(-41.113 -8.606)"/></g><g class="b" transform="translate(0 0)"><path class="c" d="M62.727,139.125v0H39.538v0a11.536,11.536,0,0,1,.619-3.744q.108-.318.236-.63v0c.085-.208.175-.411.271-.612a11.477,11.477,0,0,1,1.412-2.251c.14-.173.282-.341.429-.5.072-.083.149-.164.225-.245s.153-.157.232-.236a11.538,11.538,0,0,1,1.253-1.08c.221-.164.444-.317.675-.466s.468-.286.708-.418a.014.014,0,0,1,.009,0c.094-.05.186-.1.278-.162.182-.109.361-.227.531-.354.087-.061.171-.125.253-.192.2-.157.387-.326.568-.5.059-.059.118-.118.177-.179.122-.127.238-.26.35-.4.055-.065.109-.133.16-.2s.1-.138.153-.208a7.274,7.274,0,0,0,1.36-4.252l1.69.009,1.738.009a7.317,7.317,0,0,0,2.748,5.722c.081.066.162.129.243.188s.159.116.243.171c.018.013.033.024.05.035.079.053.157.105.24.153s.182.109.273.16a.107.107,0,0,1,.039.02c.192.107.383.219.568.334.09.055.179.111.267.175q.272.177.531.374a0,0,0,0,0,0,0h0a11.7,11.7,0,0,1,1.25,1.08A11.537,11.537,0,0,1,62.727,139.125Z" transform="translate(-31.132 -96.448)"/></g><g class="b" transform="translate(0 0)"><path class="d" d="M62.728,160.363H39.539a11.541,11.541,0,0,1,.619-3.744q.108-.318.236-.63s0,0,0,0c.083-.208.175-.411.271-.612a11.477,11.477,0,0,1,1.412-2.251c.14-.173.282-.341.429-.5.072-.083.149-.164.225-.245s.153-.157.232-.236a11.515,11.515,0,0,1,1.253-1.08c.221-.164.444-.317.675-.466s.468-.288.708-.42a.008.008,0,0,1,.009,0v0c.094-.053.186-.105.278-.16a6.756,6.756,0,0,0,.78-.551l0,0a6.23,6.23,0,0,0,4.457,1.882h.017a6.243,6.243,0,0,0,4.468-1.88l0,0a5.853,5.853,0,0,0,.483.361c.017.013.033.024.05.035.079.053.159.1.24.153s.182.107.273.157a.212.212,0,0,1,.039.02c.192.107.383.219.568.337.09.055.179.111.267.175.182.116.359.243.531.374h0a11.61,11.61,0,0,1,4.657,9.288Z" transform="translate(-31.133 -117.685)"/></g><g class="b" transform="translate(0 0)"><path class="e" d="M70.013,84.049c0,.1,0,.192,0,.288,0,.2-.015.4-.033.594,0,.068-.011.135-.02.2-.028.282-.068.56-.118.835-.018.092-.035.181-.055.271a.382.382,0,0,1-.011.055c-.018.092-.04.182-.061.271-.011.053-.024.1-.04.153a.98.98,0,0,1-.028.116c-.046.179-.1.354-.153.529-.026.083-.052.164-.081.247,0,.009-.007.017-.009.026l-.079.223c-.009.022-.017.044-.026.068-.026.07-.052.14-.081.21-.033.085-.068.168-.1.252s-.063.149-.1.223c0,.013-.011.024-.015.037-.037.079-.072.158-.109.234s-.077.162-.118.243c-.079.159-.164.319-.249.474l-.118.21a12.848,12.848,0,0,1-1.117,1.626c-.055.072-.111.142-.171.21-.081.1-.164.195-.247.288s-.149.166-.225.247c-.21.225-.424.439-.643.641-.044.044-.09.083-.136.125-.074.068-.148.133-.225.2-.059.053-.12.1-.182.153-.157.129-.315.253-.474.369-.066.05-.134.1-.2.144-.109.079-.221.153-.332.225-.061.041-.125.081-.188.118-.223.138-.448.264-.671.374-.055.028-.109.055-.164.081s-.111.053-.171.079-.144.063-.216.092a.68.68,0,0,1-.085.033c-.085.035-.173.068-.258.1-.107.039-.216.072-.323.1-.074.022-.151.041-.225.059a.03.03,0,0,1-.015,0c-.074.017-.149.035-.223.048a.521.521,0,0,1-.059.011c-.061.011-.122.022-.184.028-.087.013-.175.024-.262.028a.632.632,0,0,1-.09.007c-.07,0-.14.007-.208.007h-.006q-.1,0-.2-.007a.47.47,0,0,1-.079-.007c-.061,0-.125-.009-.19-.018a.271.271,0,0,1-.041,0c-.081-.011-.162-.024-.245-.039s-.14-.026-.212-.044a6.268,6.268,0,0,1-1.147-.387,8.366,8.366,0,0,1-1-.529c-.168-.1-.334-.21-.5-.328-.083-.059-.166-.118-.249-.179q-.39-.285-.772-.621c-.07-.063-.14-.127-.21-.192s-.14-.129-.208-.192q-.256-.246-.5-.512-.1-.1-.19-.21c-.175-.2-.345-.4-.507-.612-.064-.077-.122-.155-.182-.234q-.331-.439-.627-.916c-.052-.085-.1-.173-.155-.258-.061-.1-.12-.207-.179-.313a11.919,11.919,0,0,1-.595-1.224c-.026-.061-.053-.122-.074-.183-.035-.079-.066-.16-.094-.238q-.065-.174-.125-.348c-.039-.116-.076-.234-.114-.352s-.068-.227-.1-.343-.068-.247-.1-.374c0-.013-.007-.026-.009-.039q-.062-.262-.111-.531c-.044-.236-.079-.477-.105-.719-.011-.077-.017-.153-.024-.23s-.015-.16-.02-.24c-.011-.146-.018-.3-.022-.444,0-.1,0-.192,0-.288l1.421,2.794,2.441,1.064,2.887.26,2.142.195h.013l2,.182,4.466.4Z" transform="translate(-41.113 -66.18)"/></g><g class="b" transform="translate(0 0)"><path class="e" d="M68.121,14.341a12.24,12.24,0,0,1-1.67,2.732c-.039.048-.079.1-.12.144A12.253,12.253,0,0,1,61.109,20.9a11.908,11.908,0,0,1-1.67.481q-.574.121-1.167.19a12.654,12.654,0,0,1-1.388.077,12.2,12.2,0,0,1-1.582-.1,11.546,11.546,0,0,1-1.489-.284c-.278-.07-.549-.151-.818-.24s-.522-.184-.778-.288v-.9a8.9,8.9,0,0,1,8.892-8.9h.009a9,9,0,0,1,1.971.219,8.926,8.926,0,0,1,5.032,3.191Z" transform="translate(-41.116 -8.608)"/></g><g class="b" transform="translate(0 0)"><path class="e" d="M116.452,22.7v1.751a13.644,13.644,0,0,1-3.681-4.354s0-.007,0-.009a13.558,13.558,0,0,1-1.576-5.511,8.906,8.906,0,0,1,5.261,8.123Z" transform="translate(-87.552 -11.479)"/></g><g class="b" transform="translate(0 0)"><path class="e" d="M53.258,55.074c-.094.164-.179.332-.264.5-.033.068-.065.14-.1.21a7.409,7.409,0,0,0-.678,2.745c0,.024,0,.05,0,.074V55.181c0-.122,0-.243,0-.361C52.565,54.91,52.91,55,53.258,55.074Z" transform="translate(-41.114 -43.165)"/></g><g class="b" transform="translate(0 0)"><path class="e" d="M131.054,55.077c.132.232.25.47.364.715a7.324,7.324,0,0,1,.68,2.821V55.183c0-.121,0-.241,0-.359C131.748,54.913,131.4,55,131.054,55.077Z" transform="translate(-103.192 -43.168)"/></g><g class="b" transform="translate(0 0)"><path class="f" d="M72.813,58.992a.076.076,0,0,0-.066-.074,23.824,23.824,0,0,0-3.255-.243,36.68,36.68,0,0,0-4.35.542H64.8c-.182,0-.763-.118-1.506-.243a18.115,18.115,0,0,0-2.844-.3,23.916,23.916,0,0,0-2.782.179c-.223.026-.387.05-.472.063a.076.076,0,0,0-.066.074l-.017.929a.081.081,0,0,0,.05.074l.1.037c.155.059.142,2.859.977,3.558.5.413.938.649,2.8.649a2.617,2.617,0,0,0,2.4-1.158,8.62,8.62,0,0,0,.874-2.1.729.729,0,0,1,.649-.66h.009a.722.722,0,0,1,.658.66,8.629,8.629,0,0,0,.874,2.1,2.617,2.617,0,0,0,2.4,1.158c1.86,0,2.3-.236,2.8-.649.835-.7.822-3.5.977-3.558L72.78,60a.081.081,0,0,0,.05-.074Zm-9.375,3.314a2.442,2.442,0,0,1-1.974,1.532c-2.984.151-3.121-.682-3.314-1.342a4.543,4.543,0,0,1-.168-1.9c.079-.66.245-1.047.544-1.242a1.358,1.358,0,0,1,.627-.216,11.978,11.978,0,0,1,1.644-.077,8.27,8.27,0,0,1,1.327.1c1.062.171,1.779.531,1.779.887A6.624,6.624,0,0,1,63.438,62.306Zm8.352.19c-.192.66-.33,1.493-3.314,1.342A2.442,2.442,0,0,1,66.5,62.306a6.617,6.617,0,0,1-.465-2.254c0-.49,1.36-.99,3.106-.99s2.026.131,2.271.293c.3.195.465.581.544,1.242A4.535,4.535,0,0,1,71.79,62.5Z" transform="translate(-44.968 -46.201)"/></g><g class="b" transform="translate(0 0)"><path class="e" d="M61.125,75.779l0,2.155,0,.754v.592l0,1.967v0l0,0h0l-.006,0-8.6-4.376c0-.013-.007-.026-.009-.039q-.062-.262-.111-.531c-.044-.236-.079-.477-.105-.719-.011-.077-.017-.153-.024-.23s-.015-.16-.02-.24c-.011-.146-.018-.3-.022-.444,0-.1,0-.192,0-.288V71.764c0,.037,0,.074,0,.111a8.7,8.7,0,0,0,.313,2.037,8.842,8.842,0,0,0,.557,1.5v0a3.566,3.566,0,0,0,2.046,2.131c.044.007.09.011.134.015a7.685,7.685,0,0,0,.855.048c1.115,0,2.1-.9,2.728-1.259l.013-.007c.033-.02.066-.039.094-.059a.167.167,0,0,1,.026-.015,4.421,4.421,0,0,1,2.125-.492h.017Z" transform="translate(-41.114 -56.507)"/><path class="e" d="M102.95,71.764l0,2.612a10.715,10.715,0,0,1-.175,1.921c-.046.249-.1.5-.16.741L100.6,79.952l-6.544,1.3h0l0,0v0l-.006-5.47h.017a4.432,4.432,0,0,1,2.127.492.162.162,0,0,1,.024.015l.1.059.011.007c.625.363,1.613,1.26,2.728,1.26a7.681,7.681,0,0,0,.854-.048c.046,0,.09-.009.136-.015a3.563,3.563,0,0,0,2.044-2.131v0a8.841,8.841,0,0,0,.557-1.5,8.6,8.6,0,0,0,.313-2.066C102.95,71.819,102.95,71.792,102.95,71.764Z" transform="translate(-74.048 -56.507)"/></g><g class="b"><ellipse class="c" cx="2.18" cy="0.674" rx="2.18" ry="0.674" transform="translate(17.82 21.427)"/></g><g class="b" transform="translate(0 0)"><path class="g" d="M60.691,155.174V167.2h-.929V155.852c.125-.1.249-.2.376-.293C60.319,155.423,60.5,155.3,60.691,155.174Z" transform="translate(-47.057 -122.184)"/><path class="g" d="M124.021,155.185v12.022h.929V155.863Z" transform="translate(-97.654 -122.193)"/></g><g class="b" transform="translate(0 0)"><g transform="translate(17.457 32.254)"><path class="h" d="M82.113,151.713l2.543,3.048,2.543-3.048Z" transform="translate(-82.113 -151.713)"/><path class="h" d="M88.5,173.626H87l1.086-13.989c.046.178.789.178.835,0l1.086,13.989Z" transform="translate(-85.962 -157.952)"/></g><g transform="translate(15.28 30.284)"><path class="i" d="M76.591,144.433l-.006.011,0,0-1.056,1.773-.986,1.652-2.669-3.709c.085-.061.171-.127.252-.195l0,0a7.271,7.271,0,0,0,1.408-1.486l3.049,1.941Z" transform="translate(-71.872 -142.479)"/><path class="i" d="M98.791,144.132l-2.669,3.709-.986-1.652-1.058-1.773-.009-.015,3.069-1.954a7.331,7.331,0,0,0,1.41,1.5C98.629,144.01,98.71,144.073,98.791,144.132Z" transform="translate(-89.35 -142.447)"/></g></g></svg>