<svg xmlns="http://www.w3.org/2000/svg" xmlns:xlink="http://www.w3.org/1999/xlink" width="40" height="40" viewBox="0 0 40 40"><defs><style>.a{fill:#7e6990;}.b{clip-path:url(#a);}.c{fill:#ecc19c;}.d{fill:#1c5a7d;}.e{fill:#7ca6ba;}.f{fill:#d4dce6;}.g{fill:#1a1a1a;}</style><clipPath id="a"><circle cx="20" cy="20" r="20"/></clipPath></defs><circle class="a" cx="20" cy="20" r="20"/><g class="b"><path class="c" d="M62.759,139.127v0H39.57v0a11.535,11.535,0,0,1,.619-3.744q.108-.318.236-.63v0c.083-.208.175-.411.271-.612a11.466,11.466,0,0,1,1.412-2.251c.14-.173.282-.341.428-.5.072-.083.149-.164.225-.245s.153-.157.232-.236a11.491,11.491,0,0,1,1.252-1.08c.221-.164.444-.317.675-.466.083-.053.166-.105.251-.155l.114-.066c.114-.068.227-.133.343-.2a.014.014,0,0,1,.009,0c.094-.05.186-.105.278-.162a6.92,6.92,0,0,0,.785-.546,7.311,7.311,0,0,0,2.767-5.738l1.69.009h0l1.733.009a7.321,7.321,0,0,0,.417,2.448,6.941,6.941,0,0,0,.391.905,7.334,7.334,0,0,0,1.939,2.369,5.9,5.9,0,0,0,.485.358c.017.013.033.024.05.035.079.052.157.105.24.153s.182.109.273.159a.112.112,0,0,1,.039.02c.1.057.206.116.306.177s.175.1.262.157.179.111.267.175c.181.116.358.243.531.374a0,0,0,0,0,0,0h0c.221.164.435.339.645.518s.411.367.605.562A11.537,11.537,0,0,1,62.759,139.127Z" transform="translate(-31.157 -96.45)"/><path class="d" d="M62.759,160.363H39.57a11.535,11.535,0,0,1,.619-3.744q.108-.318.236-.63v0c.083-.208.175-.411.271-.612a11.467,11.467,0,0,1,1.412-2.251c.14-.173.282-.341.428-.5.072-.083.149-.164.225-.245s.153-.157.232-.236a11.489,11.489,0,0,1,1.252-1.08c.221-.164.444-.317.675-.466.083-.053.166-.105.251-.155.037-.024.074-.046.111-.068.114-.068.23-.133.345-.2a.007.007,0,0,1,.009,0v0c.094-.053.186-.105.278-.159a6.776,6.776,0,0,0,.78-.551l0,0a6.23,6.23,0,0,0,4.457,1.882h.017a6.243,6.243,0,0,0,4.468-1.88l0,0a5.877,5.877,0,0,0,.483.361c.017.013.033.024.05.035.079.053.159.1.24.153s.182.107.273.157a.242.242,0,0,1,.039.02c.1.057.208.116.308.177s.175.105.26.16.179.111.267.175c.181.116.358.243.531.374h0c.221.166.437.339.645.52s.411.367.605.562A11.535,11.535,0,0,1,62.759,160.363Z" transform="translate(-31.157 -117.686)"/><g transform="translate(14.126 31.775)"><path class="e" d="M78.2,150.369l0,0-.238.243a7.841,7.841,0,0,1-5.637,2.369h0a7.852,7.852,0,0,1-5.644-2.374l-.227-.234,0,0c.114-.068.23-.133.345-.2a.007.007,0,0,1,.009,0v0c.094-.053.186-.105.278-.159a6.776,6.776,0,0,0,.78-.551l0,0a6.23,6.23,0,0,0,4.457,1.882h.017a6.243,6.243,0,0,0,4.468-1.88l0,0a5.877,5.877,0,0,0,.483.361c.017.013.033.024.05.035.079.053.159.1.24.153s.182.107.273.157a.243.243,0,0,1,.039.02C77.995,150.248,78.1,150.308,78.2,150.369Z" transform="translate(-66.445 -149.462)"/></g><g transform="translate(11.107 2.321)"><path class="c" d="M70.044,31.137v5.335c0,.1,0,.192,0,.288,0,.074,0,.149-.009.223s-.007.146-.013.221c0,.05-.007.1-.011.151,0,.031,0,.059-.009.089,0,.055-.009.111-.017.166s-.009.105-.017.157-.011.1-.02.155c-.02.157-.046.315-.074.47-.02.105-.039.21-.061.313,0,0,0,.009,0,.013a.35.35,0,0,1-.009.046s0,.009,0,.013a.029.029,0,0,1,0,.013c0,.022-.009.044-.015.065s-.011.053-.017.079a.481.481,0,0,1-.02.081c-.007.039-.017.079-.026.118-.007.022-.011.046-.02.068s-.011.039-.015.057c-.046.179-.1.354-.153.529-.026.083-.053.164-.081.247,0,.009-.007.017-.009.026l-.079.223c-.009.022-.017.044-.026.068-.026.07-.053.14-.081.21-.033.085-.068.168-.1.252s-.063.149-.1.223c0,.013-.011.024-.015.037-.037.079-.072.157-.109.234s-.077.162-.118.243c-.079.159-.164.319-.249.474l-.118.21a12.872,12.872,0,0,1-1.117,1.626q-.082.108-.171.21c-.081.1-.164.195-.247.288s-.149.166-.225.247c-.21.225-.424.439-.643.641-.044.044-.09.083-.136.125-.074.068-.149.133-.225.2-.059.053-.12.1-.182.153-.157.129-.315.253-.474.369-.066.05-.133.1-.2.144-.109.079-.221.153-.332.225-.061.041-.125.081-.188.118-.2.127-.411.243-.614.345-.02.011-.037.02-.057.028-.055.028-.109.055-.164.081s-.111.053-.171.079-.144.063-.216.092a.714.714,0,0,1-.085.033c-.085.035-.173.068-.258.1-.107.039-.216.072-.323.1-.074.022-.151.041-.225.059a.03.03,0,0,1-.015,0c-.074.017-.149.035-.223.048a.523.523,0,0,1-.059.011c-.061.011-.122.022-.184.028-.087.013-.175.024-.262.028a.606.606,0,0,1-.09.007c-.07,0-.14.007-.208.007h-.007c-.068,0-.135,0-.2-.007a.465.465,0,0,1-.079-.007c-.061,0-.125-.009-.19-.017a.247.247,0,0,1-.041,0c-.081-.011-.162-.024-.245-.039s-.14-.026-.212-.044a6.29,6.29,0,0,1-1.148-.387c-.131-.059-.264-.12-.4-.19-.2-.1-.406-.214-.608-.339-.168-.1-.337-.212-.5-.328-.083-.059-.166-.118-.249-.179-.26-.19-.518-.4-.772-.621-.07-.063-.14-.127-.21-.192s-.14-.129-.208-.192q-.256-.246-.5-.512-.1-.1-.19-.21c-.175-.2-.345-.4-.507-.612-.063-.077-.122-.155-.181-.234q-.331-.439-.627-.916c-.053-.085-.1-.173-.155-.258-.061-.1-.12-.208-.179-.313a11.962,11.962,0,0,1-.595-1.224c-.026-.061-.053-.122-.074-.183-.035-.079-.065-.159-.094-.238q-.066-.174-.125-.348c-.039-.116-.077-.234-.114-.352s-.068-.227-.1-.343-.068-.247-.1-.374c0-.013-.007-.026-.009-.039q-.062-.262-.111-.531c-.044-.236-.079-.476-.105-.719-.011-.077-.017-.153-.024-.23s-.015-.16-.02-.24c-.011-.146-.017-.3-.022-.444,0-.1,0-.192,0-.288V31.137a8.874,8.874,0,0,1,.693-3.447c.011-.031.024-.059.037-.087a8.62,8.62,0,0,1,.6-1.152c.035-.059.072-.116.109-.173a8.889,8.889,0,0,1,7.449-4.039h.009a9.012,9.012,0,0,1,1.972.219,8.923,8.923,0,0,1,5.032,3.191q.236.3.446.623c.039.059.079.118.114.179a8.687,8.687,0,0,1,.6,1.148l.039.092a8.825,8.825,0,0,1,.691,3.368C70.044,31.085,70.044,31.111,70.044,31.137Z" transform="translate(-52.245 -19.832)"/><path class="f" d="M70.045,89.188c0,.1,0,.192,0,.288,0,.074,0,.149-.009.223s-.007.146-.013.221c0,.05-.007.1-.011.151,0,.031,0,.059-.009.09,0,.055-.009.111-.017.166s-.011.105-.017.157-.011.1-.02.155c-.02.157-.046.315-.074.47-.017.092-.035.182-.055.271a.408.408,0,0,1-.011.055.349.349,0,0,1-.009.046s0,.009,0,.013a.029.029,0,0,1,0,.013v0c0,.024-.011.048-.015.07a.623.623,0,0,1-.017.07.48.48,0,0,1-.02.081,1.229,1.229,0,0,1-.033.127.293.293,0,0,1-.013.059c0,.02-.011.039-.015.057-.046.179-.1.354-.153.529-.026.083-.053.164-.081.247,0,.009-.007.017-.009.026L69.355,93c-.009.022-.017.044-.026.068-.026.07-.053.14-.081.21-.033.085-.068.168-.1.252s-.063.149-.1.223c0,.013-.011.024-.015.037-.037.079-.072.157-.109.234s-.077.162-.118.243c-.079.159-.164.319-.249.474l-.118.21a12.871,12.871,0,0,1-1.117,1.626q-.082.108-.171.21c-.081.1-.164.195-.247.288s-.149.166-.225.247c-.21.225-.424.439-.643.641-.044.044-.09.083-.136.125-.074.068-.149.133-.225.2-.059.053-.12.1-.182.153-.157.129-.315.253-.474.369-.066.05-.133.1-.2.144-.109.079-.221.153-.332.225-.061.041-.125.081-.188.118-.2.127-.411.243-.614.345-.02.011-.037.02-.057.028-.055.028-.109.055-.164.081s-.111.053-.171.079-.144.063-.216.092a.712.712,0,0,1-.085.033c-.085.035-.173.068-.258.1-.107.039-.216.072-.323.1-.074.022-.151.041-.225.059a.03.03,0,0,1-.015,0c-.074.017-.149.035-.223.048a.525.525,0,0,1-.059.011c-.061.011-.122.022-.184.028-.087.013-.175.024-.262.028a.606.606,0,0,1-.09.007c-.07,0-.14.007-.208.007h-.007c-.068,0-.135,0-.2-.007a.465.465,0,0,1-.079-.007c-.061,0-.125-.009-.19-.017a.247.247,0,0,1-.041,0c-.081-.011-.162-.024-.245-.039s-.14-.026-.212-.044a6.29,6.29,0,0,1-1.148-.387c-.131-.059-.264-.12-.4-.19-.2-.1-.406-.214-.608-.339-.168-.1-.334-.21-.5-.328-.083-.059-.166-.118-.249-.179-.26-.19-.518-.4-.772-.621-.07-.063-.14-.127-.21-.192s-.14-.129-.208-.192q-.256-.246-.5-.512-.1-.1-.19-.21c-.175-.2-.345-.4-.507-.612-.063-.077-.122-.155-.181-.234q-.331-.439-.627-.916c-.053-.085-.1-.173-.155-.258-.061-.1-.12-.208-.179-.313a11.961,11.961,0,0,1-.595-1.224c-.026-.061-.053-.122-.074-.183-.035-.079-.065-.159-.094-.238q-.066-.174-.125-.348c-.039-.116-.077-.234-.114-.352s-.068-.227-.1-.343-.068-.247-.1-.374c0-.013-.007-.026-.009-.039q-.062-.262-.111-.531c-.044-.236-.079-.476-.105-.719-.011-.077-.017-.153-.024-.23s-.015-.16-.02-.24c-.011-.146-.017-.3-.022-.444,0-.1,0-.192,0-.288l1.421,2.794,2.441,1.064,2.888.26h0l2.14.195h.013l2,.182h0l4.466.4Z" transform="translate(-52.246 -72.548)"/><g transform="translate(0 14.027)"><path class="f" d="M61.156,80.919l0,2.153v0l0,.754v.592l0,1.967v0l0,0h0l0,0,0,0-8.6-4.376c0-.013-.007-.026-.009-.039q-.062-.262-.111-.531c-.044-.236-.079-.476-.105-.719-.011-.077-.017-.153-.024-.23s-.015-.16-.02-.24c-.011-.146-.017-.3-.022-.444,0-.1,0-.192,0-.288V76.9c0,.037,0,.074,0,.111s0,.053,0,.079a8.711,8.711,0,0,0,.308,1.958,8.833,8.833,0,0,0,.557,1.5v0c.573,1.191,1.34,2,2.046,2.131.044.007.09.011.133.015a7.683,7.683,0,0,0,.855.048c1.115,0,2.1-.9,2.728-1.259l.013-.007c.033-.02.066-.039.094-.059a.167.167,0,0,1,.026-.015,4.421,4.421,0,0,1,2.125-.492h.017Z" transform="translate(-52.247 -76.903)"/><path class="f" d="M102.984,76.9l0,2.612a10.713,10.713,0,0,1-.175,1.921c-.046.249-.1.5-.159.741l-2.018,2.914-6.544,1.3h0l0,0v0l-.007-5.47h.017a4.431,4.431,0,0,1,2.127.492.152.152,0,0,1,.024.015l.1.059a.04.04,0,0,0,.011.007c.625.363,1.613,1.26,2.728,1.26a7.687,7.687,0,0,0,.855-.048c.046,0,.09-.009.135-.015a3.564,3.564,0,0,0,2.044-2.131v0a8.842,8.842,0,0,0,.557-1.5,8.6,8.6,0,0,0,.313-2.066C102.984,76.954,102.984,76.927,102.984,76.9Z" transform="translate(-85.182 -76.899)"/></g><ellipse class="c" cx="2.18" cy="0.674" rx="2.18" ry="0.674" transform="translate(6.72 20.198)"/><path class="g" d="M73.048,62.311a.074.074,0,0,0-.063-.074A23.662,23.662,0,0,0,69.752,62a36.458,36.458,0,0,0-4.317.538h-.343c-.179,0-.756-.116-1.495-.24a17.866,17.866,0,0,0-2.822-.3,24.129,24.129,0,0,0-2.763.177c-.223.026-.385.05-.47.063a.074.074,0,0,0-.063.074l-.017.922a.082.082,0,0,0,.048.074l.105.035c.155.059.142,2.839.971,3.534.492.409.931.643,2.778.643a2.6,2.6,0,0,0,2.38-1.15,8.608,8.608,0,0,0,.868-2.081.727.727,0,0,1,.634-.656h.018a.716.716,0,0,1,.654.656,8.609,8.609,0,0,0,.868,2.081,2.6,2.6,0,0,0,2.38,1.15c1.847,0,2.286-.234,2.778-.643.828-.7.815-3.475.971-3.534l.105-.035a.082.082,0,0,0,.048-.074ZM63.743,65.6a2.428,2.428,0,0,1-1.961,1.521c-2.962.149-3.1-.678-3.29-1.333a4.505,4.505,0,0,1-.166-1.884c.077-.656.243-1.04.54-1.233a1.335,1.335,0,0,1,.623-.216,12.266,12.266,0,0,1,1.631-.074,8.421,8.421,0,0,1,1.318.1c1.053.171,1.766.529,1.766.881A6.6,6.6,0,0,1,63.743,65.6Zm8.291.188c-.192.656-.328,1.482-3.29,1.333A2.425,2.425,0,0,1,66.783,65.6a6.593,6.593,0,0,1-.461-2.238c0-.485,1.349-.981,3.084-.981s2.011.129,2.254.291A1.579,1.579,0,0,1,72.2,63.9,4.509,4.509,0,0,1,72.033,65.789Z" transform="translate(-56.352 -51.137)"/><g transform="translate(0)"><path class="f" d="M70.066,18.774s0,0,0,0H52.247c0-6.293,4.24-6.039,8.892-5.521h0l.995.111a9.964,9.964,0,0,0,7.731-2.448C71.8,12.293,72.142,17.368,70.066,18.774Z" transform="translate(-52.247 -10.918)"/><path class="f" d="M55.35,46.132l-.048.151c-.024.074-.048.149-.074.221s-.041.118-.066.175a10.149,10.149,0,0,1-1.786,2.99,5.084,5.084,0,0,0-1.123,3.2c0,.09-.007.179-.007.273V46.5l.73-.087.713-.085.839-.1Z" transform="translate(-52.246 -38.646)"/><path class="f" d="M124.684,46.511l-3.1-.37.048.15a10.039,10.039,0,0,0,1.925,3.385,5.2,5.2,0,0,1,1.13,3.47C124.684,50.811,124.684,46.511,124.684,46.511Z" transform="translate(-106.84 -38.653)"/><ellipse class="f" cx="6.631" cy="1.257" rx="6.631" ry="1.257" transform="translate(2.261 6.231)"/></g></g></g></svg>