<svg xmlns="http://www.w3.org/2000/svg" xmlns:xlink="http://www.w3.org/1999/xlink" width="40" height="42" viewBox="0 0 40 42"><defs><style>.a{fill:#f3e4b2;}.b{clip-path:url(#a);}.c{fill:#ecc19c;}.d{fill:#eb6d4a;}.e{fill:#543e36;}.f{fill:#c34628;}</style><clipPath id="a"><circle cx="20" cy="20" r="20"/></clipPath></defs><circle class="a" cx="20" cy="20" r="20" transform="translate(0 2)"/><g class="b" transform="translate(0 0)"><path class="c" d="M70.052,19.827v6.647c0,.1,0,.192,0,.288,0,.079,0,.155-.009.234s-.007.14-.013.21c0,.05-.007.1-.011.151,0,.031,0,.059-.009.09,0,.055-.009.111-.017.166-.009.1-.022.208-.037.313,0,.026-.007.053-.011.079-.007.053-.015.105-.024.157v.007c-.013.076-.026.151-.039.227-.02.1-.039.21-.061.313,0,0,0,.009,0,.013a.355.355,0,0,1-.009.046s0,.009,0,.013c-.011.057-.024.111-.037.166a.426.426,0,0,1-.017.072c-.007.039-.018.078-.026.118-.007.022-.011.046-.02.068s-.011.04-.015.057c-.046.179-.1.354-.153.529-.026.083-.053.164-.081.247,0,.009-.007.017-.009.026l-.079.223c-.009.022-.017.044-.026.068-.026.07-.053.14-.081.21-.033.085-.068.168-.1.252s-.063.148-.1.223c0,.013-.011.024-.015.037-.037.079-.072.157-.109.234s-.077.162-.118.243c-.079.159-.164.319-.249.474l-.118.21a12.864,12.864,0,0,1-1.117,1.626q-.082.108-.171.21c-.081.1-.164.195-.247.288s-.149.166-.225.247q-.315.338-.643.641c-.044.044-.09.083-.135.125-.074.068-.149.133-.225.2-.059.053-.12.1-.182.153-.157.129-.315.253-.474.369-.065.05-.133.1-.2.144-.109.079-.221.153-.332.225-.061.041-.125.081-.188.118-.223.138-.448.264-.671.374-.055.028-.109.055-.164.081s-.111.053-.171.079-.144.063-.216.092a.7.7,0,0,1-.085.033c-.085.035-.173.068-.258.1-.107.04-.216.072-.323.1-.074.022-.151.041-.225.059a.03.03,0,0,1-.015,0c-.074.018-.149.035-.223.048a.573.573,0,0,1-.059.011c-.061.011-.122.022-.184.028a2.617,2.617,0,0,1-.262.028.6.6,0,0,1-.09.007c-.07,0-.14.007-.208.007h-.007c-.068,0-.135,0-.2-.007a.468.468,0,0,1-.079-.007c-.061,0-.125-.009-.19-.017a.253.253,0,0,1-.041,0c-.081-.011-.162-.024-.245-.039s-.14-.026-.212-.044a6.3,6.3,0,0,1-1.147-.387,8.4,8.4,0,0,1-1-.529c-.168-.1-.337-.212-.5-.328-.083-.059-.166-.118-.249-.179q-.39-.285-.772-.621c-.07-.063-.14-.127-.21-.192s-.14-.129-.208-.192q-.256-.246-.5-.511-.1-.1-.19-.21c-.175-.2-.345-.4-.507-.612-.063-.076-.122-.155-.181-.234q-.331-.439-.627-.916c-.053-.085-.105-.172-.155-.258-.061-.1-.12-.208-.179-.313a11.917,11.917,0,0,1-.594-1.224c-.026-.061-.053-.122-.074-.183-.035-.079-.065-.16-.094-.238q-.066-.174-.125-.348c-.039-.116-.077-.234-.114-.352s-.068-.227-.1-.343-.068-.247-.1-.374c0-.013-.007-.026-.009-.04q-.062-.262-.111-.531c-.044-.236-.079-.476-.1-.719-.011-.076-.018-.153-.024-.229s-.015-.16-.02-.24c-.011-.146-.017-.3-.022-.444,0-.1,0-.192,0-.288V19.827a8.9,8.9,0,0,1,8.892-8.9h.009a9,9,0,0,1,1.971.219,8.9,8.9,0,0,1,6.925,8.6C70.052,19.775,70.052,19.8,70.052,19.827Z" transform="translate(-41.144 -8.606)"/></g><g class="b" transform="translate(0 0)"><path class="c" d="M62.764,139.129v0H39.575v0a11.535,11.535,0,0,1,.619-3.744q.108-.318.236-.63v0c.083-.208.175-.411.271-.612a11.46,11.46,0,0,1,1.412-2.251c.14-.173.282-.341.428-.5.072-.083.149-.164.225-.245s.153-.157.232-.236a11.515,11.515,0,0,1,1.253-1.08c.221-.164.444-.317.675-.465s.468-.287.708-.418a.014.014,0,0,1,.009,0c.094-.05.186-.105.278-.162a6.92,6.92,0,0,0,.785-.546,7.31,7.31,0,0,0,2.767-5.738l1.69.009,1.738.009a7.3,7.3,0,0,0,2.748,5.722,5.931,5.931,0,0,0,.485.359c.018.013.033.024.05.035.079.053.157.1.24.153s.181.109.273.16a.109.109,0,0,1,.039.02c.192.107.382.219.568.334.09.055.179.111.267.175.182.116.358.243.531.374a0,0,0,0,0,0,0h0c.221.164.435.339.645.518s.411.367.605.562A11.534,11.534,0,0,1,62.764,139.129Z" transform="translate(-31.161 -96.451)"/></g><g class="b" transform="translate(0 0)"><path class="d" d="M62.761,160.358H39.572a11.534,11.534,0,0,1,.619-3.744q.108-.318.236-.63v0c.083-.208.175-.411.271-.612a11.463,11.463,0,0,1,1.412-2.251c.14-.173.282-.341.428-.5.072-.083.149-.164.225-.245s.153-.157.232-.236a11.512,11.512,0,0,1,1.252-1.08c.221-.164.444-.317.675-.466.12-.076.24-.151.363-.223s.23-.134.345-.2a.007.007,0,0,1,.009,0v0c.094-.053.186-.1.278-.16a6.754,6.754,0,0,0,.78-.551l0,0a6.231,6.231,0,0,0,4.457,1.882h.018a6.244,6.244,0,0,0,4.468-1.88l0,0a5.88,5.88,0,0,0,.483.361c.017.013.033.024.05.035.079.053.16.1.24.153s.182.107.273.157a.22.22,0,0,1,.039.02c.1.057.208.116.308.177s.175.105.26.16.179.111.267.175c.182.116.358.243.531.374h0c.221.166.437.339.645.52s.411.367.605.562A11.535,11.535,0,0,1,62.761,160.358Z" transform="translate(-31.159 -117.681)"/></g><g class="b" transform="translate(0 0)"><path class="e" d="M70.052,84.05c0,.1,0,.192,0,.288,0,.079,0,.155-.009.234s-.007.14-.013.21c0,.05-.007.1-.011.151,0,.031,0,.059-.009.09,0,.055-.009.111-.017.166-.011.1-.022.21-.037.313,0,.026-.007.053-.011.079-.007.053-.015.105-.024.157-.011.079-.026.157-.039.234-.017.092-.035.181-.055.271a.417.417,0,0,1-.011.055c0,.015-.007.031-.009.046s0,.009,0,.013a.115.115,0,0,1,0,.028c-.011.046-.02.092-.033.138a.425.425,0,0,1-.017.072,1.3,1.3,0,0,1-.033.127.274.274,0,0,1-.013.059c0,.02-.011.04-.015.057-.046.179-.1.354-.153.529-.026.083-.053.164-.081.247,0,.009-.007.017-.009.026l-.079.223c-.009.022-.017.044-.026.068-.026.07-.053.14-.081.21-.033.085-.068.168-.1.252s-.063.148-.1.223c0,.013-.011.024-.015.037-.037.079-.072.157-.109.234s-.077.162-.118.243c-.079.159-.164.319-.249.474l-.118.21a12.864,12.864,0,0,1-1.117,1.626q-.082.108-.171.21c-.081.1-.164.195-.247.288s-.149.166-.225.247q-.315.338-.643.641c-.044.044-.09.083-.135.125-.074.068-.149.133-.225.2-.059.053-.12.1-.182.153-.157.129-.315.253-.474.369-.065.05-.133.1-.2.144-.109.079-.221.153-.332.225-.061.041-.125.081-.188.118-.223.138-.448.264-.671.374-.055.028-.109.055-.164.081s-.111.053-.171.079-.144.063-.216.092a.7.7,0,0,1-.085.033c-.085.035-.173.068-.258.1-.107.04-.216.072-.323.1-.074.022-.151.041-.225.059a.03.03,0,0,1-.015,0c-.074.018-.149.035-.223.048a.574.574,0,0,1-.059.011c-.061.011-.122.022-.184.028a2.614,2.614,0,0,1-.262.028.6.6,0,0,1-.09.007c-.07,0-.14.007-.208.007h-.007c-.068,0-.135,0-.2-.007a.467.467,0,0,1-.079-.007c-.061,0-.125-.009-.19-.017a.252.252,0,0,1-.041,0c-.081-.011-.162-.024-.245-.039s-.14-.026-.212-.044a6.3,6.3,0,0,1-1.147-.387,8.4,8.4,0,0,1-1-.529c-.168-.1-.334-.21-.5-.328-.083-.059-.166-.118-.249-.179q-.39-.285-.772-.621c-.07-.063-.14-.127-.21-.192s-.14-.129-.208-.192q-.256-.246-.5-.511-.1-.1-.19-.21c-.175-.2-.345-.4-.507-.612-.063-.076-.122-.155-.181-.234q-.331-.439-.627-.916c-.053-.085-.105-.172-.155-.258-.061-.1-.12-.208-.179-.313a11.917,11.917,0,0,1-.594-1.224c-.026-.061-.053-.122-.074-.183-.035-.079-.065-.16-.094-.238q-.066-.174-.125-.348c-.039-.116-.077-.234-.114-.352s-.068-.227-.1-.343-.068-.247-.1-.374c0-.013-.007-.026-.009-.04q-.062-.262-.111-.531c-.044-.236-.079-.476-.1-.719-.011-.076-.018-.153-.024-.229s-.015-.16-.02-.24c-.011-.146-.017-.3-.022-.444,0-.1,0-.192,0-.288l1.421,2.794,2.441,1.064,2.887.26h0l2.14.195h.013l2,.181s0,0,0,0l4.466.4Z" transform="translate(-41.144 -66.181)"/></g><g class="b" transform="translate(0 0)"><path class="e" d="M61.161,75.779l0,2.153v0l0,.754v.592l0,1.967v0l0,0h0l-.007,0-8.6-4.376c0-.013-.007-.026-.009-.04q-.062-.262-.111-.531c-.044-.236-.079-.476-.1-.719-.011-.076-.018-.153-.024-.229s-.015-.16-.02-.24c-.011-.146-.017-.3-.022-.444,0-.1,0-.192,0-.288V71.764c0,.037,0,.074,0,.111a8.7,8.7,0,0,0,.313,2.037,8.824,8.824,0,0,0,.557,1.5v0a3.566,3.566,0,0,0,2.046,2.131c.044.007.09.011.133.015a7.685,7.685,0,0,0,.855.048c1.115,0,2.1-.9,2.728-1.259l.013-.006c.033-.02.065-.04.094-.059a.158.158,0,0,1,.026-.015,4.418,4.418,0,0,1,2.124-.492Z" transform="translate(-41.143 -56.507)"/><path class="e" d="M102.983,71.759l0,2.612a10.713,10.713,0,0,1-.175,1.921c-.046.249-.1.5-.16.741l-2.018,2.914-6.544,1.3h0l0,0v0l-.007-5.47h.018a4.434,4.434,0,0,1,2.127.492.143.143,0,0,1,.024.015l.1.059.011.007c.625.363,1.613,1.26,2.728,1.26a7.687,7.687,0,0,0,.855-.048c.046,0,.09-.009.135-.015a3.563,3.563,0,0,0,2.044-2.131v0a8.842,8.842,0,0,0,.557-1.5,8.6,8.6,0,0,0,.313-2.066C102.983,71.814,102.983,71.787,102.983,71.759Z" transform="translate(-74.074 -56.503)"/></g><g class="b"><ellipse class="c" cx="2.18" cy="0.674" rx="2.18" ry="0.674" transform="translate(17.827 21.425)"/></g><g class="b" transform="translate(0 0)"><path class="e" d="M61.152,10.929h-.009a8.9,8.9,0,0,0-8.892,8.9v3.924a8.473,8.473,0,0,1,1.364-3.478c1.08-1.235.807-3.113,3.229-3.113,1.563,0,1.65.577,4.3.577h.013c2.647,0,2.734-.577,4.3-.577,2.422,0,2.149,1.877,3.229,3.113a8.475,8.475,0,0,1,1.364,3.478V19.827A8.9,8.9,0,0,0,61.152,10.929Z" transform="translate(-41.143 -8.606)"/></g><g class="b" transform="translate(0 0)"><path class="f" d="M78.2,150.361l-.24.245a7.9,7.9,0,0,1-11.285,0l-.23-.236c.114-.068.23-.133.345-.2a.007.007,0,0,1,.009,0v0c.094-.053.186-.1.278-.16a6.752,6.752,0,0,0,.78-.551l0,0a6.231,6.231,0,0,0,4.457,1.882h.018a6.244,6.244,0,0,0,4.468-1.88l0,0a5.88,5.88,0,0,0,.483.361c.017.013.033.024.05.035.079.053.16.1.24.153s.182.107.273.157a.22.22,0,0,1,.039.02C78,150.241,78.1,150.3,78.2,150.361Z" transform="translate(-52.32 -117.68)"/></g></svg>